<svg width="1200" height="160" xmlns="http://www.w3.org/2000/svg">
<rect x="0" y="0" width="1200" height="160" fill="white"/>
<rect x="0" y="0" width="120" height="80" fill="#237f7e"/>
<text x="60.0" y="30" font-weight="bold" font-family="sans-serif" font-size="20" text-anchor="middle" fill="white">18.12</text>
<text x="60.0" y="50" font-family="sans-serif" font-size="16" text-anchor="middle" fill="white">Wed</text>
<rect x="0" y="80" width="120" height="80" fill="#2b9b9a"/>
<text x="60.0" y="100" font-family="sans-serif" font-size="16" text-anchor="middle" fill="white">06:00</text>
<text x="60.0" y="120" font-family="sans-serif" font-size="16" text-anchor="middle" fill="white">-</text>
<text x="60.0" y="140" font-family="sans-serif" font-size="16" text-anchor="middle" fill="white">18:00</text>
<rect x="120" y="0" width="120" height="80" fill="#237f7e"/>
<text x="180.0" y="30" font-weight="bold" font-family="sans-serif" font-size="20" text-anchor="middle" fill="white">19.12</text>
<text x="180.0" y="50" font-family="sans-serif" font-size="16" text-anchor="middle" fill="white">Thu</text>
<rect x="120" y="80" width="120" height="80" fill="#2b9b9a"/>
<text x="180.0" y="100" font-family="sans-serif" font-size="16" text-anchor="middle" fill="white">06:00</text>
<text x="180.0" y="120" font-family="sans-serif" font-size="16" text-anchor="middle" fill="white">-</text>
<text x="180.0" y="140" font-family="sans-serif" font-size="16" text-anchor="middle" fill="white">18:00</text>
<rect x="240" y="0" width="120" height="80" fill="#237f7e"/>
<text x="300.0" y="30" font-weight="bold" font-family="sans-serif" font-size="20" text-anchor="middle" fill="white">20.12</text>
<text x="300.0" y="50" font-family="sans-serif" font-size="16" text-anchor="middle" fill="white">Fri</text>
<rect x="240" y="80" width="120" height="80" fill="#2b9b9a"/>
<text x="300.0" y="100" font-family="sans-serif" font-size="16" text-anchor="middle" fill="white">06:00</text>
<text x="300.0" y="120" font-family="sans-serif" font-size="16" text-anchor="middle" fill="white">-</text>
<text x="300.0" y="140" font-family="sans-serif" font-size="16" text-anchor="middle" fill="white">18:00</text>
<rect x="360" y="0" width="120" height="80" fill="#237f7e"/>
<text x="420.0" y="30" font-weight="bold" font-family="sans-serif" font-size="20" text-anchor="middle" fill="white">21.12</text>
<text x="420.0" y="50" font-family="sans-serif" font-size="16" text-anchor="middle" fill="white">Sat</text>
<rect x="360" y="80" width="120" height="80" fill="#2b9b9a"/>
<text x="420.0" y="120" font-family="sans-serif" font-size="16" text-anchor="middle" fill="white">No uptime</text>
<rect x="480" y="0" width="120" height="80" fill="#237f7e"/>
<text x="540.0" y="30" font-weight="bold" font-family="sans-serif" font-size="20" text-anchor="middle" fill="white">22.12</text>
<text x="540.0" y="50" font-family="sans-serif" font-size="16" text-anchor="middle" fill="white">Sun</text>
<rect x="480" y="80" width="120" height="80" fill="#2b9b9a"/>
<text x="540.0" y="120" font-family="sans-serif" font-size="16" text-anchor="middle" fill="white">No uptime</text>
<rect x="600" y="0" width="120" height="80" fill="#237f7e"/>
<text x="660.0" y="30" font-weight="bold" font-family="sans-serif" font-size="20" text-anchor="middle" fill="white">23.12</text>
<text x="660.0" y="50" font-family="sans-serif" font-size="16" text-anchor="middle" fill="white">Mon</text>
<rect x="600" y="80" width="120" height="80" fill="#2b9b9a"/>
<text x="660.0" y="120" font-family="sans-serif" font-size="16" text-anchor="middle" fill="white">No uptime</text>
<rect x="720" y="0" width="120" height="80" fill="#237f7e"/>
<text x="780.0" y="30" font-weight="bold" font-family="sans-serif" font-size="20" text-anchor="middle" fill="white">24.12</text>
<text x="780.0" y="50" font-family="sans-serif" font-size="16" text-anchor="middle" fill="white">Tue</text>
<rect x="720" y="80" width="120" height="80" fill="#2b9b9a"/>
<text x="780.0" y="120" font-family="sans-serif" font-size="16" text-anchor="middle" fill="white">No uptime</text>
<rect x="840" y="0" width="120" height="80" fill="#237f7e"/>
<text x="900.0" y="30" font-weight="bold" font-family="sans-serif" font-size="20" text-anchor="middle" fill="white">25.12</text>
<text x="900.0" y="50" font-family="sans-serif" font-size="16" text-anchor="middle" fill="white">Wed</text>
<rect x="840" y="80" width="120" height="80" fill="#2b9b9a"/>
<text x="900.0" y="120" font-family="sans-serif" font-size="16" text-anchor="middle" fill="white">No uptime</text>
<rect x="960" y="0" width="120" height="80" fill="#237f7e"/>
<text x="1020.0" y="30" font-weight="bold" font-family="sans-serif" font-size="20" text-anchor="middle" fill="white">26.12</text>
<text x="1020.0" y="50" font-family="sans-serif" font-size="16" text-anchor="middle" fill="white">Thu</text>
<rect x="960" y="80" width="120" height="80" fill="#2b9b9a"/>
<text x="1020.0" y="120" font-family="sans-serif" font-size="16" text-anchor="middle" fill="white">No uptime</text>
<rect x="1080" y="0" width="120" height="80" fill="#237f7e"/>
<text x="1140.0" y="30" font-weight="bold" font-family="sans-serif" font-size="20" text-anchor="middle" fill="white">27.12</text>
<text x="1140.0" y="50" font-family="sans-serif" font-size="16" text-anchor="middle" fill="white">Fri</text>
<rect x="1080" y="80" width="120" height="80" fill="#2b9b9a"/>
<text x="1140.0" y="120" font-family="sans-serif" font-size="16" text-anchor="middle" fill="white">No uptime</text>
</svg>