<svg width="1480" height="200" xmlns="http://www.w3.org/2000/svg">
<rect x="0" y="0" width="1480" height="200" fill="white"/>
<rect x="20" y="20" width="120" height="80" fill="#237f7e"/>
<text x="80.0" y="50" font-weight="bold" font-family="sans-serif" font-size="20" text-anchor="middle" fill="white">18.12</text>
<text x="80.0" y="70" font-family="sans-serif" font-size="16" text-anchor="middle" fill="white">Wed</text>
<rect x="20" y="100" width="120" height="80" fill="#2b9b9a"/>
<text x="80.0" y="120" font-family="sans-serif" font-size="16" text-anchor="middle" fill="white">06:00</text>
<text x="80.0" y="140" font-family="sans-serif" font-size="16" text-anchor="middle" fill="white">-</text>
<text x="80.0" y="160" font-family="sans-serif" font-size="16" text-anchor="middle" fill="white">18:00</text>
<rect x="140" y="20" width="120" height="80" fill="#237f7e"/>
<text x="200.0" y="50" font-weight="bold" font-family="sans-serif" font-size="20" text-anchor="middle" fill="white">19.12</text>
<text x="200.0" y="70" font-family="sans-serif" font-size="16" text-anchor="middle" fill="white">Thu</text>
<rect x="140" y="100" width="120" height="80" fill="#2b9b9a"/>
<text x="200.0" y="120" font-family="sans-serif" font-size="16" text-anchor="middle" fill="white">06:00</text>
<text x="200.0" y="140" font-family="sans-serif" font-size="16" text-anchor="middle" fill="white">-</text>
<text x="200.0" y="160" font-family="sans-serif" font-size="16" text-anchor="middle" fill="white">18:00</text>
<rect x="260" y="20" width="120" height="80" fill="#237f7e"/>
<text x="320.0" y="50" font-weight="bold" font-family="sans-serif" font-size="20" text-anchor="middle" fill="white">20.12</text>
<text x="320.0" y="70" font-family="sans-serif" font-size="16" text-anchor="middle" fill="white">Fri</text>
<rect x="260" y="100" width="120" height="80" fill="#2b9b9a"/>
<text x="320.0" y="120" font-family="sans-serif" font-size="16" text-anchor="middle" fill="white">06:00</text>
<text x="320.0" y="140" font-family="sans-serif" font-size="16" text-anchor="middle" fill="white">-</text>
<text x="320.0" y="160" font-family="sans-serif" font-size="16" text-anchor="middle" fill="white">18:00</text>
<rect x="380" y="20" width="120" height="80" fill="#237f7e"/>
<text x="440.0" y="50" font-weight="bold" font-family="sans-serif" font-size="20" text-anchor="middle" fill="white">21.12</text>
<text x="440.0" y="70" font-family="sans-serif" font-size="16" text-anchor="middle" fill="white">Sat</text>
<rect x="380" y="100" width="120" height="80" fill="#2b9b9a"/>
<text x="440.0" y="140" font-family="sans-serif" font-size="16" text-anchor="middle" fill="white">No uptime</text>
<rect x="500" y="20" width="120" height="80" fill="#237f7e"/>
<text x="560.0" y="50" font-weight="bold" font-family="sans-serif" font-size="20" text-anchor="middle" fill="white">22.12</text>
<text x="560.0" y="70" font-family="sans-serif" font-size="16" text-anchor="middle" fill="white">Sun</text>
<rect x="500" y="100" width="120" height="80" fill="#2b9b9a"/>
<text x="560.0" y="140" font-family="sans-serif" font-size="16" text-anchor="middle" fill="white">No uptime</text>
<rect x="620" y="20" width="120" height="80" fill="#237f7e"/>
<text x="680.0" y="50" font-weight="bold" font-family="sans-serif" font-size="20" text-anchor="middle" fill="white">23.12</text>
<text x="680.0" y="70" font-family="sans-serif" font-size="16" text-anchor="middle" fill="white">Mon</text>
<rect x="620" y="100" width="120" height="80" fill="#2b9b9a"/>
<text x="680.0" y="140" font-family="sans-serif" font-size="16" text-anchor="middle" fill="white">No uptime</text>
<rect x="740" y="20" width="120" height="80" fill="#237f7e"/>
<text x="800.0" y="50" font-weight="bold" font-family="sans-serif" font-size="20" text-anchor="middle" fill="white">24.12</text>
<text x="800.0" y="70" font-family="sans-serif" font-size="16" text-anchor="middle" fill="white">Tue</text>
<rect x="740" y="100" width="120" height="80" fill="#2b9b9a"/>
<text x="800.0" y="140" font-family="sans-serif" font-size="16" text-anchor="middle" fill="white">No uptime</text>
<rect x="860" y="20" width="120" height="80" fill="#237f7e"/>
<text x="920.0" y="50" font-weight="bold" font-family="sans-serif" font-size="20" text-anchor="middle" fill="white">25.12</text>
<text x="920.0" y="70" font-family="sans-serif" font-size="16" text-anchor="middle" fill="white">Wed</text>
<rect x="860" y="100" width="120" height="80" fill="#2b9b9a"/>
<text x="920.0" y="140" font-family="sans-serif" font-size="16" text-anchor="middle" fill="white">No uptime</text>
<rect x="980" y="20" width="120" height="80" fill="#237f7e"/>
<text x="1040.0" y="50" font-weight="bold" font-family="sans-serif" font-size="20" text-anchor="middle" fill="white">26.12</text>
<text x="1040.0" y="70" font-family="sans-serif" font-size="16" text-anchor="middle" fill="white">Thu</text>
<rect x="980" y="100" width="120" height="80" fill="#2b9b9a"/>
<text x="1040.0" y="140" font-family="sans-serif" font-size="16" text-anchor="middle" fill="white">No uptime</text>
<rect x="1100" y="20" width="120" height="80" fill="#237f7e"/>
<text x="1160.0" y="50" font-weight="bold" font-family="sans-serif" font-size="20" text-anchor="middle" fill="white">27.12</text>
<text x="1160.0" y="70" font-family="sans-serif" font-size="16" text-anchor="middle" fill="white">Fri</text>
<rect x="1100" y="100" width="120" height="80" fill="#2b9b9a"/>
<text x="1160.0" y="140" font-family="sans-serif" font-size="16" text-anchor="middle" fill="white">No uptime</text>
<rect x="1220" y="20" width="120" height="80" fill="#237f7e"/>
<text x="1280.0" y="50" font-weight="bold" font-family="sans-serif" font-size="20" text-anchor="middle" fill="white">28.12</text>
<text x="1280.0" y="70" font-family="sans-serif" font-size="16" text-anchor="middle" fill="white">Sat</text>
<rect x="1220" y="100" width="120" height="80" fill="#2b9b9a"/>
<text x="1280.0" y="140" font-family="sans-serif" font-size="16" text-anchor="middle" fill="white">No uptime</text>
<rect x="1340" y="20" width="120" height="80" fill="#237f7e"/>
<text x="1400.0" y="50" font-weight="bold" font-family="sans-serif" font-size="20" text-anchor="middle" fill="white">29.12</text>
<text x="1400.0" y="70" font-family="sans-serif" font-size="16" text-anchor="middle" fill="white">Sun</text>
<rect x="1340" y="100" width="120" height="80" fill="#2b9b9a"/>
<text x="1400.0" y="140" font-family="sans-serif" font-size="16" text-anchor="middle" fill="white">No uptime</text>
</svg>